<svg xmlns="http://www.w3.org/2000/svg" xmlns:xlink="http://www.w3.org/1999/xlink" id="Layer_1" data-name="Layer 1" viewBox="0 0 95.53 95.5"><defs><style>.cls-1{fill:url(#New_Gradient_Swatch_1);}.cls-2{fill:url(#New_Gradient_Swatch_1-2);}</style><linearGradient id="New_Gradient_Swatch_1" x1="29.21" y1="22.07" x2="29.21" y2="100.12" gradientUnits="userSpaceOnUse"><stop offset="0" stop-color="#8bccff"></stop><stop offset="0.99" stop-color="#0033e7"></stop></linearGradient><linearGradient id="New_Gradient_Swatch_1-2" x1="57.18" y1="22.07" x2="57.18" y2="100.12" xlink:href="#New_Gradient_Swatch_1"></linearGradient></defs><path class="cls-1" d="M36.33,93.85S13.08,83.71,17.77,62.38c3.58-16.21,7.76-14.14,9.76-22.26,2.2-8.93-1.37-12.64-1.37-12.64s8.76,1.45,12.78,8.11c5.22,8.65.9,19.2-5.23,31.47C28.77,77,29,86.43,36.33,93.85Z"></path><path class="cls-2" d="M51.85,0s-4.4,12.64,5.91,26.66c6,8.2,13.19,17.86,16.08,23.22s8.93,21.57-.69,32.43S54.74,95.5,54.74,95.5,70.81,80.38,62.3,62.38c0,0-4,13.47-14.57,17.59a40.51,40.51,0,0,0,2.61-25C47.18,41.5,37,38.75,36.05,25.15,35,9.93,45.39,1.51,51.85,0Z"></path></svg>